<svg width="119" height="35" viewBox="0 0 119 35" fill="none" xmlns="http://www.w3.org/2000/svg">
<path d="M117.742 21.4912H113.97V23.9473H117.742V21.4912Z" fill="#222222"/>
<path d="M116.485 30.7018H111.455V28.2456H116.485V19.0351H107.162L104.282 16.2199L106.061 14.484L108.204 16.58H116.485C117.152 16.5807 117.791 16.8397 118.263 17.3002C118.734 17.7606 118.999 18.385 119 19.0361V28.2467C118.999 28.8977 118.734 29.5217 118.262 29.982C117.791 30.4422 117.152 30.701 116.485 30.7018Z" fill="#222222"/>
<path d="M102.653 30.7018H95.1089V4.91229H109.043C109.817 4.91387 110.572 5.14711 111.206 5.58059C111.84 6.01407 112.322 6.62693 112.588 7.33656L116.333 17.3869L113.97 18.2272L110.225 8.17634C110.136 7.9398 109.976 7.73553 109.764 7.59107C109.553 7.44661 109.301 7.36891 109.043 7.36843H97.6221V28.2435H102.652L102.653 30.7018Z" fill="#222222"/>
<path d="M107.054 35C105.936 35 104.842 34.676 103.912 34.069C102.982 33.462 102.257 32.5992 101.829 31.5898C101.4 30.5804 101.288 29.4697 101.507 28.3981C101.725 27.3265 102.264 26.3422 103.055 25.5696C103.846 24.797 104.854 24.2709 105.951 24.0577C107.048 23.8446 108.185 23.954 109.219 24.3721C110.252 24.7902 111.136 25.4983 111.757 26.4067C112.379 27.3152 112.71 28.3832 112.71 29.4758C112.708 30.9402 112.111 32.344 111.051 33.3795C109.991 34.415 108.554 34.9977 107.054 35V35ZM107.054 26.4035C106.432 26.4035 105.825 26.5836 105.308 26.9209C104.791 27.2583 104.388 27.7378 104.15 28.2988C103.912 28.8598 103.85 29.4771 103.971 30.0726C104.092 30.6682 104.392 31.2152 104.831 31.6446C105.271 32.074 105.831 32.3664 106.441 32.4849C107.051 32.6033 107.683 32.5425 108.257 32.3102C108.832 32.0778 109.323 31.6843 109.668 31.1794C110.013 30.6745 110.198 30.0809 110.198 29.4737C110.197 28.6597 109.865 27.8792 109.276 27.3037C108.687 26.7281 107.888 26.4043 107.054 26.4035V26.4035Z" fill="#222222"/>
<path d="M71.8465 28.2456H68.0742V30.7017H71.8465V28.2456Z" fill="#222222"/>
<path d="M96.3662 28.2456H80.6484V30.7017H96.3662V28.2456Z" fill="#222222"/>
<path d="M76.2475 35C75.1288 35 74.0353 34.676 73.1051 34.069C72.1749 33.462 71.45 32.5992 71.0219 31.5898C70.5938 30.5804 70.4817 29.4697 70.7 28.3981C70.9182 27.3265 71.4569 26.3422 72.248 25.5696C73.039 24.797 74.0469 24.2709 75.1441 24.0577C76.2413 23.8446 77.3786 23.954 78.4121 24.3721C79.4456 24.7902 80.329 25.4983 80.9505 26.4067C81.572 27.3152 81.9038 28.3832 81.9038 29.4758C81.9015 30.9402 81.3048 32.344 80.2446 33.3795C79.1843 34.415 77.747 34.9977 76.2475 35V35ZM76.2475 26.4035C75.6258 26.4035 75.018 26.5836 74.5011 26.9209C73.9841 27.2583 73.5812 27.7378 73.3433 28.2988C73.1053 28.8598 73.0431 29.4771 73.1644 30.0726C73.2857 30.6682 73.5851 31.2152 74.0247 31.6446C74.4643 32.074 75.0245 32.3664 75.6343 32.4849C76.2441 32.6033 76.8761 32.5425 77.4505 32.3102C78.0249 32.0778 78.5159 31.6843 78.8613 31.1794C79.2067 30.6745 79.3911 30.0809 79.3911 29.4737C79.3902 28.6597 79.0588 27.8792 78.4694 27.3037C77.8801 26.7281 77.081 26.4043 76.2475 26.4035V26.4035Z" fill="#222222"/>
<path d="M11.3867 35C10.268 35 9.17444 34.676 8.24427 34.069C7.31411 33.462 6.58913 32.5992 6.16103 31.5898C5.73292 30.5804 5.62091 29.4697 5.83915 28.3981C6.0574 27.3265 6.5961 26.3422 7.38714 25.5696C8.17818 24.797 9.18603 24.2709 10.2832 24.0577C11.3804 23.8446 12.5177 23.954 13.5513 24.3721C14.5848 24.7902 15.4682 25.4983 16.0897 26.4067C16.7112 27.3152 17.043 28.3832 17.043 29.4758C17.0406 30.9402 16.444 32.344 15.3837 33.3795C14.3235 34.415 12.8861 34.9977 11.3867 35V35ZM11.3867 26.4035C10.765 26.4035 10.1572 26.5836 9.64024 26.9209C9.12328 27.2583 8.72037 27.7378 8.48244 28.2988C8.24451 28.8598 8.18225 29.4771 8.30355 30.0726C8.42484 30.6682 8.72424 31.2152 9.16387 31.6446C9.60351 32.074 10.1636 32.3664 10.7734 32.4849C11.3832 32.6033 12.0153 32.5425 12.5897 32.3102C13.1641 32.0778 13.6551 31.6843 14.0005 31.1794C14.3459 30.6745 14.5303 30.0809 14.5303 29.4737C14.5294 28.6597 14.1979 27.8792 13.6086 27.3037C13.0192 26.7281 12.2202 26.4043 11.3867 26.4035V26.4035Z" fill="#222222"/>
<path d="M20.189 35C19.0703 35 17.9767 34.676 17.0465 34.069C16.1164 33.462 15.3914 32.5992 14.9633 31.5898C14.5352 30.5804 14.4232 29.4697 14.6414 28.3981C14.8596 27.3265 15.3984 26.3422 16.1894 25.5696C16.9804 24.797 17.9883 24.2709 19.0855 24.0577C20.1827 23.8446 21.32 23.954 22.3535 24.3721C23.387 24.7902 24.2704 25.4983 24.8919 26.4067C25.5135 27.3152 25.8452 28.3832 25.8452 29.4758C25.8429 30.9402 25.2462 32.344 24.186 33.3795C23.1257 34.415 21.6884 34.9977 20.189 35V35ZM20.189 26.4035C19.5672 26.4035 18.9594 26.5836 18.4425 26.9209C17.9255 27.2583 17.5226 27.7378 17.2847 28.2988C17.0468 28.8598 16.9845 29.4771 17.1058 30.0726C17.2271 30.6682 17.5265 31.2152 17.9661 31.6446C18.4058 32.074 18.9659 32.3664 19.5757 32.4849C20.1855 32.6033 20.8175 32.5425 21.3919 32.3102C21.9664 32.0778 22.4573 31.6843 22.8027 31.1794C23.1482 30.6745 23.3325 30.0809 23.3325 29.4737C23.3317 28.6597 23.0002 27.8792 22.4108 27.3037C21.8215 26.7281 21.0224 26.4043 20.189 26.4035V26.4035Z" fill="#222222"/>
<path d="M28.9902 35C27.8715 35 26.778 34.676 25.8478 34.069C24.9176 33.462 24.1926 32.5992 23.7645 31.5898C23.3364 30.5804 23.2244 29.4697 23.4427 28.3981C23.6609 27.3265 24.1996 26.3422 24.9907 25.5696C25.7817 24.797 26.7895 24.2709 27.8867 24.0577C28.9839 23.8446 30.1212 23.954 31.1548 24.3721C32.1883 24.7902 33.0717 25.4983 33.6932 26.4067C34.3147 27.3152 34.6465 28.3832 34.6465 29.4758C34.6442 30.9402 34.0475 32.344 32.9872 33.3795C31.927 34.415 30.4896 34.9977 28.9902 35V35ZM28.9902 26.4035C28.3685 26.4035 27.7607 26.5836 27.2438 26.9209C26.7268 27.2583 26.3239 27.7378 26.0859 28.2988C25.848 28.8598 25.7858 29.4771 25.9071 30.0726C26.0284 30.6682 26.3278 31.2152 26.7674 31.6446C27.207 32.074 27.7672 32.3664 28.3769 32.4849C28.9867 32.6033 29.6188 32.5425 30.1932 32.3102C30.7676 32.0778 31.2586 31.6843 31.604 31.1794C31.9494 30.6745 32.1338 30.0809 32.1338 29.4737C32.1329 28.6597 31.8014 27.8792 31.2121 27.3037C30.6228 26.7281 29.8237 26.4043 28.9902 26.4035Z" fill="#222222"/>
<path d="M93.2225 26.4035H0.696777V0H93.2225V26.4035ZM3.21326 23.9474H90.7104V2.45614H3.21326V23.9474Z" fill="#222222"/>
<path d="M6.98566 28.2455H3.21338V30.7017H6.98566V28.2455Z" fill="#222222"/>
<path d="M37.1639 28.2455H33.3916V30.7017H37.1639V28.2455Z" fill="#222222"/>
<path d="M107.054 30.7018C107.749 30.7018 108.312 30.1519 108.312 29.4737C108.312 28.7954 107.749 28.2456 107.054 28.2456C106.36 28.2456 105.797 28.7954 105.797 29.4737C105.797 30.1519 106.36 30.7018 107.054 30.7018Z" fill="#222222"/>
<path d="M76.2477 30.7018C76.9421 30.7018 77.5051 30.1519 77.5051 29.4737C77.5051 28.7954 76.9421 28.2456 76.2477 28.2456C75.5532 28.2456 74.9902 28.7954 74.9902 29.4737C74.9902 30.1519 75.5532 30.7018 76.2477 30.7018Z" fill="#222222"/>
<path d="M11.3868 30.7018C12.0813 30.7018 12.6442 30.1519 12.6442 29.4737C12.6442 28.7954 12.0813 28.2456 11.3868 28.2456C10.6924 28.2456 10.1294 28.7954 10.1294 29.4737C10.1294 30.1519 10.6924 30.7018 11.3868 30.7018Z" fill="#222222"/>
<path d="M20.1891 30.7018C20.8835 30.7018 21.4465 30.1519 21.4465 29.4737C21.4465 28.7954 20.8835 28.2456 20.1891 28.2456C19.4946 28.2456 18.9316 28.7954 18.9316 29.4737C18.9316 30.1519 19.4946 30.7018 20.1891 30.7018Z" fill="#222222"/>
<path d="M28.9903 30.7018C29.6848 30.7018 30.2478 30.1519 30.2478 29.4737C30.2478 28.7954 29.6848 28.2456 28.9903 28.2456C28.2959 28.2456 27.7329 28.7954 27.7329 29.4737C27.7329 30.1519 28.2959 30.7018 28.9903 30.7018Z" fill="#222222"/>
</svg>
