<svg viewBox="0 0 61 31" fill="none" xmlns="http://www.w3.org/2000/svg">
<path d="M59.7419 19.8401H55.9688V22.3201H59.7419V19.8401Z" fill="#222222"/>
<path d="M38.3608 26.66H15.0928V24.18H35.8454V2.48H2.51546V24.18H6.28866V26.66H0V0H38.3608V26.66Z" fill="#222222"/>
<path d="M58.188 16.12H44.984L42.1035 13.2764L43.8835 11.5237L46.0274 13.64H58.188V16.12Z" fill="#222222"/>
<path d="M58.4849 26.66H52.8273V24.18H58.4849V16.5003L54.5757 14.607C53.8537 14.2594 53.2642 13.6921 52.8942 12.9889L47.6848 3.14613C47.5788 2.94496 47.4186 2.77641 47.2219 2.65892C47.0253 2.54144 46.7996 2.47955 46.5696 2.48001H38.3639V24.18H44.0215V26.66H35.8457V7.2992e-06H46.5696C47.2596 -0.00134208 47.9366 0.184424 48.5267 0.536975C49.1168 0.889526 49.5971 1.39528 49.9152 1.99892L55.124 11.8417C55.2474 12.076 55.4438 12.2651 55.6844 12.3812L59.5936 14.2745C60.0145 14.4802 60.369 14.7974 60.6174 15.1905C60.8659 15.5836 60.9985 16.0371 61.0004 16.5003V24.18C60.9996 24.8375 60.7344 25.4679 60.2628 25.9329C59.7912 26.3978 59.1518 26.6593 58.4849 26.66Z" fill="#222222"/>
<path d="M48.4223 31.0002C47.3033 31.0002 46.2094 30.673 45.2791 30.0601C44.3487 29.4472 43.6235 28.5761 43.1953 27.5569C42.7671 26.5377 42.6551 25.4161 42.8734 24.3342C43.0917 23.2522 43.6305 22.2583 44.4217 21.4782C45.213 20.6981 46.221 20.1669 47.3185 19.9517C48.416 19.7364 49.5535 19.8469 50.5873 20.2691C51.6211 20.6912 52.5047 21.4062 53.1264 22.3234C53.7481 23.2407 54.0799 24.3191 54.0799 25.4223C54.0776 26.901 53.4808 28.3184 52.4203 29.364C51.3597 30.4095 49.922 30.9979 48.4223 31.0002ZM48.4223 22.3202C47.8004 22.3202 47.1925 22.502 46.6754 22.8426C46.1583 23.1833 45.7553 23.6674 45.5173 24.2339C45.2793 24.8003 45.217 25.4236 45.3384 26.025C45.4597 26.6263 45.7591 27.1787 46.1989 27.6122C46.6386 28.0458 47.1989 28.341 47.8088 28.4606C48.4188 28.5802 49.051 28.5188 49.6255 28.2842C50.2001 28.0496 50.6912 27.6522 51.0367 27.1425C51.3822 26.6327 51.5666 26.0333 51.5666 25.4202C51.5654 24.5985 51.2338 23.8107 50.6443 23.2298C50.0548 22.6488 49.2557 22.3221 48.4223 22.3213V22.3202Z" fill="#222222"/>
<path d="M10.6908 31.0002C9.57185 31.0002 8.47801 30.673 7.54762 30.0601C6.61723 29.4472 5.89208 28.5761 5.46387 27.5569C5.03566 26.5377 4.92361 25.4161 5.14191 24.3342C5.36022 23.2522 5.89906 22.2583 6.69029 21.4782C7.48152 20.6981 8.4896 20.1669 9.58707 19.9517C10.6845 19.7364 11.8221 19.8469 12.8559 20.2691C13.8897 20.6912 14.7733 21.4062 15.395 22.3234C16.0166 23.2407 16.3484 24.3191 16.3484 25.4223C16.3461 26.901 15.7493 28.3184 14.6888 29.364C13.6283 30.4095 12.1906 30.9979 10.6908 31.0002ZM10.6908 22.3202C10.0689 22.3202 9.46101 22.502 8.94392 22.8426C8.42684 23.1833 8.02382 23.6674 7.78584 24.2339C7.54785 24.8003 7.48558 25.4236 7.60691 26.025C7.72823 26.6263 8.0277 27.1787 8.46744 27.6122C8.90719 28.0458 9.46745 28.341 10.0774 28.4606C10.6873 28.5802 11.3196 28.5188 11.8941 28.2842C12.4687 28.0496 12.9597 27.6522 13.3052 27.1425C13.6507 26.6327 13.8352 26.0333 13.8352 25.4202C13.834 24.5985 13.5023 23.8107 12.9129 23.2298C12.3234 22.6488 11.5243 22.3221 10.6908 22.3213V22.3202Z" fill="#222222"/>
<path d="M48.4228 26.6602C49.1174 26.6602 49.6805 26.105 49.6805 25.4202C49.6805 24.7353 49.1174 24.1802 48.4228 24.1802C47.7281 24.1802 47.165 24.7353 47.165 25.4202C47.165 26.105 47.7281 26.6602 48.4228 26.6602Z" fill="#222222"/>
<path d="M10.6904 26.6602C11.385 26.6602 11.9481 26.105 11.9481 25.4202C11.9481 24.7353 11.385 24.1802 10.6904 24.1802C9.99572 24.1802 9.43262 24.7353 9.43262 25.4202C9.43262 26.105 9.99572 26.6602 10.6904 26.6602Z" fill="#222222"/>
</svg>
