<svg viewBox="0 0 93 35" fill="none" xmlns="http://www.w3.org/2000/svg">
<path d="M10.6899 35C9.57124 35 8.47766 34.676 7.5475 34.069C6.61733 33.462 5.89236 32.5992 5.46425 31.5898C5.03614 30.5804 4.92413 29.4697 5.14238 28.3981C5.36062 27.3265 5.89933 26.3422 6.69037 25.5696C7.4814 24.797 8.48925 24.2709 9.58646 24.0577C10.6837 23.8446 11.8209 23.954 12.8545 24.3721C13.888 24.7902 14.7714 25.4983 15.3929 26.4067C16.0144 27.3152 16.3462 28.3832 16.3462 29.4758C16.3439 30.9402 15.7472 32.344 14.687 33.3795C13.6267 34.415 12.1894 34.9977 10.6899 35ZM10.6899 26.4035C10.0682 26.4035 9.46042 26.5836 8.94346 26.9209C8.4265 27.2583 8.02359 27.7378 7.78566 28.2988C7.54773 28.8598 7.48548 29.4771 7.60677 30.0726C7.72807 30.6682 8.02746 31.2152 8.4671 31.6446C8.90673 32.074 9.46686 32.3664 10.0767 32.4849C10.6864 32.6033 11.3185 32.5425 11.8929 32.3102C12.4673 32.0778 12.9583 31.6843 13.3037 31.1794C13.6491 30.6745 13.8335 30.0809 13.8335 29.4737C13.8326 28.6597 13.5012 27.8792 12.9118 27.3037C12.3225 26.7281 11.5234 26.4043 10.6899 26.4035Z" fill="#222222"/>
<path d="M19.4922 35C18.3735 35 17.2799 34.676 16.3497 34.069C15.4196 33.462 14.6946 32.5992 14.2665 31.5898C13.8384 30.5804 13.7264 29.4697 13.9446 28.3981C14.1629 27.3265 14.7016 26.3422 15.4926 25.5696C16.2837 24.797 17.2915 24.2709 18.3887 24.0577C19.4859 23.8446 20.6232 23.954 21.6567 24.3721C22.6903 24.7902 23.5737 25.4983 24.1952 26.4067C24.8167 27.3152 25.1484 28.3832 25.1484 29.4758C25.1461 30.9402 24.5494 32.344 23.4892 33.3795C22.4289 34.415 20.9916 34.9977 19.4922 35ZM19.4922 26.4035C18.8704 26.4035 18.2627 26.5836 17.7457 26.9209C17.2288 27.2583 16.8258 27.7378 16.5879 28.2988C16.35 28.8598 16.2877 29.4771 16.409 30.0726C16.5303 30.6682 16.8297 31.2152 17.2693 31.6446C17.709 32.074 18.2691 32.3664 18.8789 32.4849C19.4887 32.6033 20.1208 32.5425 20.6952 32.3102C21.2696 32.0778 21.7605 31.6843 22.106 31.1794C22.4514 30.6745 22.6357 30.0809 22.6357 29.4737C22.6349 28.6597 22.3034 27.8792 21.7141 27.3037C21.1247 26.7281 20.3256 26.4043 19.4922 26.4035Z" fill="#222222"/>
<path d="M28.2934 35C27.1747 35 26.0812 34.676 25.151 34.069C24.2208 33.462 23.4959 32.5992 23.0678 31.5898C22.6397 30.5804 22.5276 29.4697 22.7459 28.3981C22.9641 27.3265 23.5028 26.3422 24.2939 25.5696C25.0849 24.797 26.0928 24.2709 27.19 24.0577C28.2872 23.8446 29.4245 23.954 30.458 24.3721C31.4915 24.7902 32.3749 25.4983 32.9964 26.4067C33.618 27.3152 33.9497 28.3832 33.9497 29.4758C33.9474 30.9402 33.3507 32.344 32.2905 33.3795C31.2302 34.415 29.7929 34.9977 28.2934 35ZM28.2934 26.4035C27.6717 26.4035 27.0639 26.5836 26.547 26.9209C26.03 27.2583 25.6271 27.7378 25.3892 28.2988C25.1512 28.8598 25.089 29.4771 25.2103 30.0726C25.3316 30.6682 25.631 31.2152 26.0706 31.6446C26.5103 32.074 27.0704 32.3664 27.6802 32.4849C28.29 32.6033 28.922 32.5425 29.4964 32.3102C30.0708 32.0778 30.5618 31.6843 30.9072 31.1794C31.2526 30.6745 31.437 30.0809 31.437 29.4737C31.4361 28.6597 31.1047 27.8792 30.5153 27.3037C29.926 26.7281 29.1269 26.4043 28.2934 26.4035Z" fill="#222222"/>
<path d="M92.5258 26.4035H0V0H92.5258V26.4035ZM2.51648 23.9474H90.0136V2.45614H2.51648V23.9474Z" fill="#222222"/>
<path d="M6.28888 28.2455H2.5166V30.7017H6.28888V28.2455Z" fill="#222222"/>
<path d="M36.4671 28.2455H32.6948V30.7017H36.4671V28.2455Z" fill="#222222"/>
</svg>
