<svg width="123" height="21" viewBox="0 0 123 21" fill="none" xmlns="http://www.w3.org/2000/svg">
<g clip-path="url(#clip0_674_4809)">
<path d="M38.2812 5.78921C38.2812 10.0812 35.5736 15.8704 28.7604 15.8704H27.6866L26.6381 21H20.6418L24.9495 0H31.847C35.8347 0 38.2812 2.0093 38.2812 5.78921ZM29.6068 10.6497C31.409 10.6497 32.2259 8.18909 32.2259 6.93057C32.2259 5.84997 31.6996 5.22071 30.769 5.22071H29.8973L28.7604 10.6497H29.6068Z" fill="#222222"/>
<path d="M50.5307 13.6789L52.0761 21H45.8145L44.9133 15.1197H44.1301L42.9048 21H36.9084L41.2162 0H48.2021C52.2192 0 54.6658 1.95288 54.6658 5.48977C54.6658 8.34098 53.4404 11.7694 50.5307 13.6789ZM46.164 5.22071L45.1744 10.0335H45.9913C47.7978 10.0335 48.6105 7.96342 48.6105 6.79169C48.6105 5.80223 48.0884 5.20334 47.1283 5.20334L46.164 5.22071Z" fill="#222222"/>
<path d="M68.9238 5.31179H62.4938L61.9421 7.98073H67.3531L66.3467 12.902H60.9231L60.3378 15.6751H66.9447L65.8709 20.9869H53.3267L57.6344 -0.0130615H70.0018L68.9238 5.31179Z" fill="#222222"/>
<path d="M71.3409 21L70.7598 0H76.7561L76.2002 13.8307H76.2297L81.207 0H87.5823L78.4446 21H71.3409Z" fill="#222222"/>
<path d="M100.034 5.31179H93.6038L93.0522 7.98073H98.4674L97.4483 12.902H92.0331L91.452 15.6751H98.0589L96.9809 20.9869H84.4536L88.7613 -0.0130615H101.133L100.034 5.31179Z" fill="#222222"/>
<path d="M98.0294 21L98.8716 16.9206L106.586 5.55053H101.407L102.56 0H115.193L114.351 4.07935L106.666 15.4495H112.195L111.033 21H98.0294Z" fill="#222222"/>
<path d="M112.667 21L116.974 0H123L118.692 21H112.667Z" fill="#222222"/>
<path d="M2.64441 12.889H19.568L20.5323 7.92871H3.6087L2.64441 12.889Z" fill="#36CB83"/>
<path d="M0 4.96032H21.1387L22.1029 0H0.964293L0 4.96032Z" fill="#36CB83"/>
<path d="M5.17096 20.9999H17.8878L18.8521 16.0353H6.13525L5.17096 20.9999Z" fill="#36CB83"/>
</g>
<defs>
<clipPath id="clip0_674_4809">
<rect width="123" height="21" fill="white"/>
</clipPath>
</defs>
</svg>
