<svg width="18" height="18" viewBox="0 0 18 18" fill="none" xmlns="http://www.w3.org/2000/svg">
<g clip-path="url(#clip0_1009_7788)">
<path d="M14.1752 12.5822C15.3726 10.982 15.9194 8.98767 15.7055 7.00056C15.4915 5.01345 14.5328 3.18115 13.0222 1.8725C11.5117 0.563846 9.56145 -0.123994 7.56413 -0.0525625C5.56681 0.0188696 3.67071 0.84427 2.25749 2.25749C0.84427 3.67071 0.0188696 5.56681 -0.0525625 7.56413C-0.123994 9.56145 0.563846 11.5117 1.8725 13.0222C3.18115 14.5328 5.01345 15.4915 7.00056 15.7055C8.98767 15.9194 10.982 15.3726 12.5822 14.1752L16.4072 18.0002L18.0002 16.4102L14.1752 12.5822ZM7.87524 13.5002C6.76272 13.5002 5.67518 13.1703 4.75016 12.5523C3.82513 11.9342 3.10416 11.0557 2.67842 10.0278C2.25268 9 2.14128 7.869 2.35832 6.77786C2.57537 5.68671 3.11109 4.68443 3.89776 3.89776C4.68443 3.11109 5.68671 2.57537 6.77786 2.35832C7.869 2.14128 9 2.25268 10.0278 2.67842C11.0557 3.10416 11.9342 3.82513 12.5523 4.75016C13.1703 5.67518 13.5002 6.76272 13.5002 7.87524C13.4988 9.36666 12.9058 10.7966 11.8512 11.8512C10.7966 12.9058 9.36666 13.4988 7.87524 13.5002Z" fill="#222222"/>
</g>
<defs>
<clipPath id="clip0_1009_7788">
<rect width="18" height="18" fill="white"/>
</clipPath>
</defs>
</svg>
