<svg viewBox="0 0 65 39" fill="none" xmlns="http://www.w3.org/2000/svg">
<path d="M63.2541 25.3979H59.5498V27.8711H63.2541V25.3979Z" fill="#222222"/>
<path d="M62.0204 34.6721H57.0813V32.2001H62.0204V22.9248H52.8648L50.0342 20.0902L51.7811 18.3423L53.8859 20.4528H62.0177C62.6725 20.4535 63.3002 20.7143 63.7632 21.1779C64.2261 21.6416 64.4866 22.2702 64.4873 22.9259V32.2001C64.4863 32.8551 64.2261 33.4831 63.7637 33.9464C63.3014 34.4098 62.6745 34.6707 62.0204 34.6721Z" fill="#222222"/>
<path d="M48.438 34.6721H41.0293V8.70435H54.7106C55.4705 8.70593 56.2116 8.94079 56.8341 9.37727C57.4565 9.81374 57.9304 10.4308 58.1917 11.1454L61.8694 21.2652L59.5488 22.1113L55.8712 11.991C55.784 11.7528 55.626 11.5471 55.4185 11.4016C55.211 11.2562 54.9639 11.1779 54.7106 11.1775H43.4951V32.1968H48.4342L48.438 34.6721Z" fill="#222222"/>
<path d="M52.7585 39.0003C51.6599 39.0003 50.586 38.674 49.6726 38.0628C48.7592 37.4516 48.0473 36.5829 47.6269 35.5665C47.2065 34.5501 47.0965 33.4317 47.3108 32.3527C47.5251 31.2737 48.0542 30.2826 48.8309 29.5047C49.6077 28.7268 50.5974 28.197 51.6749 27.9824C52.7523 27.7677 53.8691 27.8779 54.884 28.2989C55.899 28.7199 56.7665 29.4329 57.3768 30.3476C57.9871 31.2623 58.3129 32.3377 58.3129 33.4379C58.3106 34.9124 57.7247 36.3259 56.6835 37.3686C55.6424 38.4112 54.2309 38.998 52.7585 39.0003ZM52.7585 30.3443C52.1479 30.3443 51.5511 30.5256 51.0435 30.8653C50.5358 31.205 50.1402 31.6878 49.9065 32.2527C49.6729 32.8176 49.6117 33.4392 49.7308 34.0388C49.85 34.6385 50.144 35.1893 50.5757 35.6217C51.0074 36.054 51.5574 36.3485 52.1563 36.4677C52.7551 36.587 53.3757 36.5258 53.9398 36.2918C54.5039 36.0578 54.986 35.6616 55.3252 35.1532C55.6644 34.6448 55.8454 34.0472 55.8454 33.4357C55.8446 32.6161 55.5191 31.8303 54.9403 31.2507C54.3616 30.6712 53.5769 30.3452 52.7585 30.3443Z" fill="#222222"/>
<path d="M7.69008 32.199H2.75098V34.6721H7.69008V32.199Z" fill="#222222"/>
<path d="M42.2633 32.199H16.333V34.6721H42.2633V32.199Z" fill="#222222"/>
<path d="M12.0124 39.0003C10.9138 39.0003 9.83994 38.674 8.92653 38.0628C8.01313 37.4516 7.30121 36.5829 6.88081 35.5665C6.46042 34.5501 6.35042 33.4317 6.56474 32.3527C6.77905 31.2737 7.30806 30.2826 8.08485 29.5047C8.86164 28.7268 9.85133 28.197 10.9288 27.9824C12.0062 27.7677 13.123 27.8779 14.1379 28.2989C15.1529 28.7199 16.0203 29.4329 16.6307 30.3476C17.241 31.2623 17.5667 32.3377 17.5667 33.4379C17.5645 34.9124 16.9786 36.3259 15.9374 37.3686C14.8962 38.4112 13.4848 38.998 12.0124 39.0003ZM12.0124 30.3443C11.4018 30.3443 10.805 30.5256 10.2974 30.8653C9.78971 31.205 9.39406 31.6878 9.16041 32.2527C8.92677 32.8176 8.86563 33.4392 8.98474 34.0388C9.10385 34.6385 9.39785 35.1893 9.82957 35.6217C10.2613 36.054 10.8113 36.3485 11.4101 36.4677C12.009 36.587 12.6296 36.5258 13.1937 36.2918C13.7578 36.0578 14.2399 35.6616 14.5791 35.1532C14.9183 34.6448 15.0993 34.0472 15.0993 33.4357C15.0985 32.6161 14.773 31.8303 14.1942 31.2507C13.6155 30.6712 12.8308 30.3452 12.0124 30.3443Z" fill="#222222"/>
<path d="M43.4984 30.3442H0.28125V0.666748H43.4984V30.3442ZM2.74866 27.8711H41.0267V3.13987H2.7508L2.74866 27.8711Z" fill="#222222"/>
<path d="M52.7611 34.6721C53.4431 34.6721 53.9959 34.1185 53.9959 33.4355C53.9959 32.7526 53.4431 32.199 52.7611 32.199C52.0792 32.199 51.5264 32.7526 51.5264 33.4355C51.5264 34.1185 52.0792 34.6721 52.7611 34.6721Z" fill="#222222"/>
<path d="M12.0131 34.6721C12.695 34.6721 13.2479 34.1185 13.2479 33.4355C13.2479 32.7526 12.695 32.199 12.0131 32.199C11.3311 32.199 10.7783 32.7526 10.7783 33.4355C10.7783 34.1185 11.3311 34.6721 12.0131 34.6721Z" fill="#222222"/>
</svg>
