<svg width="44" height="44" viewBox="0 0 44 44" fill="#36CB83"  xmlns="http://www.w3.org/2000/svg">
<g clip-path="url(#clip0_320_1660)">
<path d="M4.5 29.2047V29.2039L4.51833 5.49967C4.51833 5.49954 4.51833 5.4994 4.51833 5.49926C4.51833 5.49914 4.51833 5.49902 4.51833 5.4989C4.51875 2.93684 6.59146 0.833008 9.16667 0.833008H34.8333C37.4023 0.833008 39.5 2.93072 39.5 5.49967V5.50045L39.4817 29.2047H4.5ZM4.5 29.2047C4.5 30.8152 5.3177 32.2372 6.55145 33.0752L6.55143 33.0753M4.5 29.2047L6.55143 33.0753M6.55143 33.0753L6.55887 33.0802M6.55143 33.0753L6.55887 33.0802M6.55887 33.0802L21.4455 42.9985L22.0003 43.3682M6.55887 33.0802L22.0003 43.3682M22.0003 43.3682L22.5549 42.9982M22.0003 43.3682L22.5549 42.9982M22.5549 42.9982L37.4233 33.0799L37.4233 33.0799M22.5549 42.9982L37.4233 33.0799M37.4233 33.0799L37.4302 33.0752M37.4233 33.0799L37.4302 33.0752M37.4302 33.0752C38.6638 32.2373 39.4814 30.8156 39.4817 29.2054L37.4302 33.0752Z" fill="#36CB83" stroke="white" stroke-width="2"/>
</g>
<path d="M30 14H27V10H13C11.9 10 11 10.9 11 12V23H13C13 24.66 14.34 26 16 26C17.66 26 19 24.66 19 23H25C25 24.66 26.34 26 28 26C29.66 26 31 24.66 31 23H33V18L30 14ZM29.5 15.5L31.46 18H27V15.5H29.5ZM16 24C15.45 24 15 23.55 15 23C15 22.45 15.45 22 16 22C16.55 22 17 22.45 17 23C17 23.55 16.55 24 16 24ZM18.22 21C17.67 20.39 16.89 20 16 20C15.11 20 14.33 20.39 13.78 21H13V12H25V21H18.22ZM28 24C27.45 24 27 23.55 27 23C27 22.45 27.45 22 28 22C28.55 22 29 22.45 29 23C29 23.55 28.55 24 28 24Z" fill="white"/>
<defs>
<clipPath id="clip0_320_1660">
<rect width="44" height="44" fill="white"/>
</clipPath>
</defs>
</svg>
