<svg width="24" height="16" viewBox="0 0 24 16" fill="none" xmlns="http://www.w3.org/2000/svg">
<path d="M0.949219 16.0001V13.6501C0.949219 13.0668 1.09922 12.5376 1.39922 12.0626C1.69922 11.5876 2.11589 11.2334 2.64922 11.0001C3.86589 10.4668 4.96172 10.0834 5.93672 9.8501C6.91172 9.61676 7.91589 9.5001 8.94922 9.5001C9.98255 9.5001 10.9826 9.61676 11.9492 9.8501C12.9159 10.0834 14.0076 10.4668 15.2242 11.0001C15.7576 11.2334 16.1784 11.5876 16.4867 12.0626C16.7951 12.5376 16.9492 13.0668 16.9492 13.6501V16.0001H0.949219ZM18.4492 16.0001V13.6501C18.4492 12.6001 18.1826 11.7376 17.6492 11.0626C17.1159 10.3876 16.4159 9.84177 15.5492 9.4251C16.6992 9.55843 17.7826 9.75426 18.7992 10.0126C19.8159 10.2709 20.6409 10.5668 21.2742 10.9001C21.8242 11.2168 22.2576 11.6084 22.5742 12.0751C22.8909 12.5418 23.0492 13.0668 23.0492 13.6501V16.0001H18.4492ZM8.94922 7.9751C7.84922 7.9751 6.94922 7.6251 6.24922 6.9251C5.54922 6.2251 5.19922 5.3251 5.19922 4.2251C5.19922 3.1251 5.54922 2.2251 6.24922 1.5251C6.94922 0.825098 7.84922 0.475098 8.94922 0.475098C10.0492 0.475098 10.9492 0.825098 11.6492 1.5251C12.3492 2.2251 12.6992 3.1251 12.6992 4.2251C12.6992 5.3251 12.3492 6.2251 11.6492 6.9251C10.9492 7.6251 10.0492 7.9751 8.94922 7.9751ZM17.9492 4.2251C17.9492 5.3251 17.5992 6.2251 16.8992 6.9251C16.1992 7.6251 15.2992 7.9751 14.1992 7.9751C14.0159 7.9751 13.8117 7.9626 13.5867 7.9376C13.3617 7.9126 13.1576 7.86676 12.9742 7.8001C13.3742 7.38343 13.6784 6.87093 13.8867 6.2626C14.0951 5.65426 14.1992 4.9751 14.1992 4.2251C14.1992 3.4751 14.0951 2.8126 13.8867 2.2376C13.6784 1.6626 13.3742 1.13343 12.9742 0.650098C13.1576 0.600098 13.3617 0.558431 13.5867 0.525098C13.8117 0.491765 14.0159 0.475098 14.1992 0.475098C15.2992 0.475098 16.1992 0.825098 16.8992 1.5251C17.5992 2.2251 17.9492 3.1251 17.9492 4.2251ZM2.44922 14.5001H15.4492V13.6501C15.4492 13.3834 15.3701 13.1251 15.2117 12.8751C15.0534 12.6251 14.8576 12.4501 14.6242 12.3501C13.4242 11.8168 12.4159 11.4584 11.5992 11.2751C10.7826 11.0918 9.89922 11.0001 8.94922 11.0001C7.99922 11.0001 7.11172 11.0918 6.28672 11.2751C5.46172 11.4584 4.44922 11.8168 3.24922 12.3501C3.01589 12.4501 2.82422 12.6251 2.67422 12.8751C2.52422 13.1251 2.44922 13.3834 2.44922 13.6501V14.5001ZM8.94922 6.4751C9.59922 6.4751 10.1367 6.2626 10.5617 5.8376C10.9867 5.4126 11.1992 4.8751 11.1992 4.2251C11.1992 3.5751 10.9867 3.0376 10.5617 2.6126C10.1367 2.1876 9.59922 1.9751 8.94922 1.9751C8.29922 1.9751 7.76172 2.1876 7.33672 2.6126C6.91172 3.0376 6.69922 3.5751 6.69922 4.2251C6.69922 4.8751 6.91172 5.4126 7.33672 5.8376C7.76172 6.2626 8.29922 6.4751 8.94922 6.4751Z" fill="white"/>
</svg>
