<svg width="19" height="20" viewBox="0 0 19 20" fill="none" xmlns="http://www.w3.org/2000/svg">
<path d="M3.525 8.85L9.025 0L14.525 8.85H3.525ZM14.65 20C13.4167 20 12.3833 19.5833 11.55 18.75C10.7167 17.9167 10.3 16.8833 10.3 15.65C10.3 14.4167 10.7167 13.3833 11.55 12.55C12.3833 11.7167 13.4167 11.3 14.65 11.3C15.8833 11.3 16.9167 11.7167 17.75 12.55C18.5833 13.3833 19 14.4167 19 15.65C19 16.8833 18.5833 17.9167 17.75 18.75C16.9167 19.5833 15.8833 20 14.65 20ZM0 19.375V11.775H7.6V19.375H0ZM14.65 18.5C15.45 18.5 16.125 18.225 16.675 17.675C17.225 17.125 17.5 16.45 17.5 15.65C17.5 14.85 17.225 14.175 16.675 13.625C16.125 13.075 15.45 12.8 14.65 12.8C13.85 12.8 13.175 13.075 12.625 13.625C12.075 14.175 11.8 14.85 11.8 15.65C11.8 16.45 12.075 17.125 12.625 17.675C13.175 18.225 13.85 18.5 14.65 18.5ZM1.5 17.875H6.1V13.275H1.5V17.875ZM6.225 7.35H11.825L9.025 2.825L6.225 7.35Z" fill="white"/>
</svg>
