<svg width="18" height="18" viewBox="0 0 18 18" fill="none" xmlns="http://www.w3.org/2000/svg">
<path d="M0 18V4.125H4.125V0H13.875V8.25H18V18H10.325V13.875H7.675V18H0ZM1.5 16.5H4.125V13.875H1.5V16.5ZM1.5 12.375H4.125V9.75H1.5V12.375ZM1.5 8.25H4.125V5.625H1.5V8.25ZM5.625 12.375H8.25V9.75H5.625V12.375ZM5.625 8.25H8.25V5.625H5.625V8.25ZM5.625 4.125H8.25V1.5H5.625V4.125ZM9.75 12.375H12.375V9.75H9.75V12.375ZM9.75 8.25H12.375V5.625H9.75V8.25ZM9.75 4.125H12.375V1.5H9.75V4.125ZM13.875 16.5H16.5V13.875H13.875V16.5ZM13.875 12.375H16.5V9.75H13.875V12.375Z" fill="white"/>
</svg>
