<svg width="22" height="20" viewBox="0 0 22 20" fill="none" xmlns="http://www.w3.org/2000/svg">
<path opacity="0.7" d="M10.875 18.475C10.9583 18.475 11.0542 18.4542 11.1625 18.4125C11.2708 18.3708 11.3583 18.3167 11.425 18.25L19.85 9.8C20.0667 9.58333 20.2292 9.3375 20.3375 9.0625C20.4458 8.7875 20.5 8.50833 20.5 8.225C20.5 7.94167 20.4458 7.65833 20.3375 7.375C20.2292 7.09167 20.0667 6.84167 19.85 6.625L15.35 2.125C15.1333 1.90833 14.8833 1.74583 14.6 1.6375C14.3167 1.52917 14.0333 1.475 13.75 1.475C13.4667 1.475 13.1875 1.52917 12.9125 1.6375C12.6375 1.74583 12.3917 1.90833 12.175 2.125L11.725 2.575L13.75 4.625C13.9667 4.85833 14.1583 5.12917 14.325 5.4375C14.4917 5.74583 14.575 6.08333 14.575 6.45C14.575 7.08333 14.3292 7.64167 13.8375 8.125C13.3458 8.60833 12.7833 8.85 12.15 8.85C11.7333 8.85 11.3875 8.7875 11.1125 8.6625C10.8375 8.5375 10.5833 8.35833 10.35 8.125L8.525 6.3L4 10.825C3.91667 10.9083 3.85833 10.9958 3.825 11.0875C3.79167 11.1792 3.775 11.275 3.775 11.375C3.775 11.5917 3.84583 11.7708 3.9875 11.9125C4.12917 12.0542 4.30833 12.125 4.525 12.125C4.625 12.125 4.72083 12.1 4.8125 12.05C4.90417 12 4.98333 11.9417 5.05 11.875L8.5 8.425L9.55 9.475L6.125 12.9C6.04167 12.9833 5.98333 13.075 5.95 13.175C5.91667 13.275 5.9 13.375 5.9 13.475C5.9 13.675 5.975 13.85 6.125 14C6.275 14.15 6.45 14.225 6.65 14.225C6.75 14.225 6.84583 14.2042 6.9375 14.1625C7.02917 14.1208 7.10833 14.0667 7.175 14L10.625 10.55L11.675 11.6L8.25 15.025C8.18333 15.0917 8.12917 15.1792 8.0875 15.2875C8.04583 15.3958 8.025 15.5 8.025 15.6C8.025 15.8 8.1 15.975 8.25 16.125C8.4 16.275 8.575 16.35 8.775 16.35C8.875 16.35 8.96667 16.3333 9.05 16.3C9.13333 16.2667 9.21667 16.2083 9.3 16.125L12.75 12.675L13.8 13.725L10.35 17.175C10.2667 17.2583 10.2083 17.35 10.175 17.45C10.1417 17.55 10.125 17.6417 10.125 17.725C10.125 17.9583 10.1917 18.1417 10.325 18.275C10.4583 18.4083 10.6417 18.475 10.875 18.475ZM10.875 19.975C10.325 19.975 9.83333 19.7708 9.4 19.3625C8.96667 18.9542 8.70833 18.45 8.625 17.85C8.05833 17.7667 7.58333 17.5333 7.2 17.15C6.81667 16.7667 6.58333 16.2917 6.5 15.725C5.93333 15.6417 5.4625 15.4042 5.0875 15.0125C4.7125 14.6208 4.48333 14.15 4.4 13.6C3.78333 13.5167 3.275 13.2667 2.875 12.85C2.475 12.4333 2.275 11.9333 2.275 11.35C2.275 11.0667 2.32917 10.7833 2.4375 10.5C2.54583 10.2167 2.70833 9.96667 2.925 9.75L8.525 4.15L11.275 6.9C11.4083 7.03333 11.5542 7.1375 11.7125 7.2125C11.8708 7.2875 12.025 7.325 12.175 7.325C12.3917 7.325 12.5958 7.22917 12.7875 7.0375C12.9792 6.84583 13.075 6.64167 13.075 6.425C13.075 6.325 13.0458 6.2125 12.9875 6.0875C12.9292 5.9625 12.8333 5.83333 12.7 5.7L9.125 2.125C8.90833 1.90833 8.65833 1.74583 8.375 1.6375C8.09167 1.52917 7.80833 1.475 7.525 1.475C7.24167 1.475 6.9625 1.52917 6.6875 1.6375C6.4125 1.74583 6.16667 1.90833 5.95 2.125L2.15 5.925C1.91667 6.15833 1.75417 6.40417 1.6625 6.6625C1.57083 6.92083 1.51667 7.20833 1.5 7.525C1.48333 7.85833 1.54583 8.17917 1.6875 8.4875C1.82917 8.79583 2 9.075 2.2 9.325L1.125 10.4C0.791667 10.0333 0.520833 9.59167 0.3125 9.075C0.104167 8.55833 0 8.03333 0 7.5C0 7 0.0958334 6.52083 0.2875 6.0625C0.479167 5.60417 0.75 5.2 1.1 4.85L4.875 1.075C5.24167 0.708333 5.65833 0.4375 6.125 0.2625C6.59167 0.0874998 7.06667 0 7.55 0C8.03333 0 8.50417 0.0874998 8.9625 0.2625C9.42083 0.4375 9.83333 0.708333 10.2 1.075L10.65 1.525L11.1 1.075C11.4667 0.708333 11.8833 0.4375 12.35 0.2625C12.8167 0.0874998 13.2917 0 13.775 0C14.2583 0 14.7292 0.0874998 15.1875 0.2625C15.6458 0.4375 16.0583 0.708333 16.425 1.075L20.9 5.55C21.2667 5.91667 21.5417 6.33333 21.725 6.8C21.9083 7.26667 22 7.74167 22 8.225C22 8.70833 21.9083 9.17917 21.725 9.6375C21.5417 10.0958 21.2667 10.5083 20.9 10.875L12.475 19.3C12.2583 19.5167 12.0125 19.6833 11.7375 19.8C11.4625 19.9167 11.175 19.975 10.875 19.975Z" fill="white"/>
</svg>
