<svg width="108" height="35" viewBox="0 0 108 35" fill="none" xmlns="http://www.w3.org/2000/svg">
<path d="M106.742 21.4912H102.97V23.9473H106.742V21.4912Z" fill="#222222"/>
<path d="M105.485 30.7018H100.455V28.2456H105.485V19.0351H96.1615L93.2817 16.2199L95.0607 14.484L97.2041 16.58H105.485C106.152 16.5807 106.791 16.8397 107.263 17.3002C107.734 17.7606 107.999 18.385 108 19.0361V28.2467C107.999 28.8977 107.734 29.5217 107.262 29.982C106.791 30.4422 106.152 30.701 105.485 30.7018Z" fill="#222222"/>
<path d="M91.6534 30.7018H84.1089V4.91229H98.0433C98.8172 4.91387 99.5719 5.14711 100.206 5.58059C100.84 6.01407 101.322 6.62693 101.588 7.33656L105.333 17.3869L102.97 18.2272L99.2252 8.17634C99.1364 7.9398 98.9755 7.73553 98.7642 7.59107C98.5529 7.44661 98.3013 7.36891 98.0433 7.36843H86.6221V28.2435H91.6518L91.6534 30.7018Z" fill="#222222"/>
<path d="M96.0542 35C94.9355 35 93.8419 34.676 92.9118 34.069C91.9816 33.462 91.2566 32.5992 90.8285 31.5898C90.4004 30.5804 90.2884 29.4697 90.5066 28.3981C90.7249 27.3265 91.2636 26.3422 92.0546 25.5696C92.8457 24.797 93.8535 24.2709 94.9507 24.0577C96.0479 23.8446 97.1852 23.954 98.2188 24.3721C99.2523 24.7902 100.136 25.4983 100.757 26.4067C101.379 27.3152 101.71 28.3832 101.71 29.4758C101.708 30.9402 101.111 32.344 100.051 33.3795C98.991 34.415 97.5536 34.9977 96.0542 35V35ZM96.0542 26.4035C95.4325 26.4035 94.8247 26.5836 94.3077 26.9209C93.7908 27.2583 93.3879 27.7378 93.1499 28.2988C92.912 28.8598 92.8497 29.4771 92.971 30.0726C93.0923 30.6682 93.3917 31.2152 93.8314 31.6446C94.271 32.074 94.8311 32.3664 95.4409 32.4849C96.0507 32.6033 96.6828 32.5425 97.2572 32.3102C97.8316 32.0778 98.3226 31.6843 98.668 31.1794C99.0134 30.6745 99.1978 30.0809 99.1978 29.4737C99.1969 28.6597 98.8654 27.8792 98.2761 27.3037C97.6867 26.7281 96.8877 26.4043 96.0542 26.4035V26.4035Z" fill="#222222"/>
<path d="M85.3662 28.2456H69.6484V30.7017H85.3662V28.2456Z" fill="#222222"/>
<path d="M71.3662 28.2456H55.6484V30.7017H71.3662V28.2456Z" fill="#222222"/>
<path d="M56.3662 28.2456H40.6484V30.7017H56.3662V28.2456Z" fill="#222222"/>
<path d="M44.3662 28.2456H28.6484V30.7017H44.3662V28.2456Z" fill="#222222"/>
<path d="M38.3662 28.2456H22.6484V30.7017H38.3662V28.2456Z" fill="#222222"/>
<path d="M14.6484 28.2456H0.648438V30.7017H14.6484V28.2456Z" fill="#222222"/>
<path d="M17.9902 35C16.8715 35 15.778 34.676 14.8478 34.069C13.9176 33.462 13.1926 32.5992 12.7645 31.5898C12.3364 30.5804 12.2244 29.4697 12.4427 28.3981C12.6609 27.3265 13.1996 26.3422 13.9907 25.5696C14.7817 24.797 15.7895 24.2709 16.8867 24.0577C17.9839 23.8446 19.1212 23.954 20.1548 24.3721C21.1883 24.7902 22.0717 25.4983 22.6932 26.4067C23.3147 27.3152 23.6465 28.3832 23.6465 29.4758C23.6442 30.9402 23.0475 32.344 21.9872 33.3795C20.927 34.415 19.4896 34.9977 17.9902 35V35ZM17.9902 26.4035C17.3685 26.4035 16.7607 26.5836 16.2438 26.9209C15.7268 27.2583 15.3239 27.7378 15.0859 28.2988C14.848 28.8598 14.7858 29.4771 14.9071 30.0726C15.0284 30.6682 15.3278 31.2152 15.7674 31.6446C16.207 32.074 16.7672 32.3664 17.3769 32.4849C17.9867 32.6033 18.6188 32.5425 19.1932 32.3102C19.7676 32.0778 20.2586 31.6843 20.604 31.1794C20.9494 30.6745 21.1338 30.0809 21.1338 29.4737C21.1329 28.6597 20.8014 27.8792 20.2121 27.3037C19.6228 26.7281 18.8237 26.4043 17.9902 26.4035Z" fill="#222222"/>
<path d="M82 26.4H0V0H82V26.4ZM2.23021 23.9442H79.7737V2.45581H2.23021V23.9442Z" fill="#222222"/>
<path d="M96.0543 30.7018C96.7488 30.7018 97.3117 30.1519 97.3117 29.4737C97.3117 28.7954 96.7488 28.2456 96.0543 28.2456C95.3598 28.2456 94.7969 28.7954 94.7969 29.4737C94.7969 30.1519 95.3598 30.7018 96.0543 30.7018Z" fill="#222222"/>
<path d="M17.9903 30.7018C18.6848 30.7018 19.2478 30.1519 19.2478 29.4737C19.2478 28.7954 18.6848 28.2456 17.9903 28.2456C17.2959 28.2456 16.7329 28.7954 16.7329 29.4737C16.7329 30.1519 17.2959 30.7018 17.9903 30.7018Z" fill="#222222"/>
</svg>
