<svg width="16" height="20" viewBox="0 0 16 20" fill="none" xmlns="http://www.w3.org/2000/svg">
<path d="M7.25 16.975H8.75V15.975H10.25C10.4667 15.975 10.6458 15.9042 10.7875 15.7625C10.9292 15.6208 11 15.4417 11 15.225V11.975C11 11.7583 10.9292 11.5792 10.7875 11.4375C10.6458 11.2958 10.4667 11.225 10.25 11.225H6.5V9.475H11V7.975H8.75V6.975H7.25V7.975H5.75C5.53333 7.975 5.35417 8.04583 5.2125 8.1875C5.07083 8.32917 5 8.50833 5 8.725V11.975C5 12.1917 5.07083 12.3708 5.2125 12.5125C5.35417 12.6542 5.53333 12.725 5.75 12.725H9.5V14.475H5V15.975H7.25V16.975ZM1.5 20C1.1 20 0.75 19.85 0.45 19.55C0.15 19.25 0 18.9 0 18.5V1.5C0 1.1 0.15 0.75 0.45 0.45C0.75 0.15 1.1 0 1.5 0H10.525L16 5.475V18.5C16 18.9 15.85 19.25 15.55 19.55C15.25 19.85 14.9 20 14.5 20H1.5ZM9.275 5.475V1.5H1.5V18.5H14.5V5.475H9.275ZM1.5 1.5V5.475V1.5V18.5V1.5Z" fill="white"/>
</svg>
