<svg width="18" height="18" viewBox="0 0 18 18" fill="none" xmlns="http://www.w3.org/2000/svg">
<path d="M14.175 12.582C15.3724 10.9818 15.9192 8.98742 15.7052 7.00031C15.4913 5.01321 14.5326 3.18091 13.022 1.87225C11.5114 0.563601 9.5612 -0.124239 7.56389 -0.0528066C5.56657 0.0186254 3.67046 0.844026 2.25724 2.25724C0.844026 3.67046 0.0186254 5.56657 -0.0528066 7.56389C-0.124239 9.5612 0.563601 11.5114 1.87225 13.022C3.18091 14.5326 5.01321 15.4913 7.00031 15.7052C8.98742 15.9192 10.9818 15.3724 12.582 14.175L16.407 18L18 16.41L14.175 12.582ZM7.875 13.5C6.76248 13.5 5.67494 13.1701 4.74991 12.552C3.82489 11.9339 3.10392 11.0554 2.67817 10.0276C2.25243 8.99976 2.14104 7.86876 2.35808 6.77761C2.57512 5.68647 3.11085 4.68419 3.89752 3.89752C4.68419 3.11085 5.68647 2.57512 6.77761 2.35808C7.86876 2.14104 8.99976 2.25243 10.0276 2.67817C11.0554 3.10392 11.9339 3.82489 12.552 4.74991C13.1701 5.67494 13.5 6.76248 13.5 7.875C13.4986 9.36641 12.9055 10.7963 11.8509 11.8509C10.7963 12.9055 9.36641 13.4986 7.875 13.5Z" fill="#222222"/>
</svg>
