<svg width="24" height="16" viewBox="0 0 24 16" fill="none" xmlns="http://www.w3.org/2000/svg">
<path d="M0.949997 16.0001V13.6501C0.949997 13.0668 1.1 12.5376 1.4 12.0626C1.7 11.5876 2.11666 11.2334 2.65 11.0001C3.86666 10.4668 4.9625 10.0834 5.9375 9.8501C6.9125 9.61676 7.91666 9.5001 8.95 9.5001C9.98333 9.5001 10.9833 9.61676 11.95 9.8501C12.9167 10.0834 14.0083 10.4668 15.225 11.0001C15.7583 11.2334 16.1792 11.5876 16.4875 12.0626C16.7958 12.5376 16.95 13.0668 16.95 13.6501V16.0001H0.949997ZM18.45 16.0001V13.6501C18.45 12.6001 18.1833 11.7376 17.65 11.0626C17.1167 10.3876 16.4167 9.84177 15.55 9.4251C16.7 9.55843 17.7833 9.75426 18.8 10.0126C19.8167 10.2709 20.6417 10.5668 21.275 10.9001C21.825 11.2168 22.2583 11.6084 22.575 12.0751C22.8917 12.5418 23.05 13.0668 23.05 13.6501V16.0001H18.45ZM8.95 7.9751C7.85 7.9751 6.95 7.6251 6.25 6.9251C5.55 6.2251 5.2 5.3251 5.2 4.2251C5.2 3.1251 5.55 2.2251 6.25 1.5251C6.95 0.825098 7.85 0.475098 8.95 0.475098C10.05 0.475098 10.95 0.825098 11.65 1.5251C12.35 2.2251 12.7 3.1251 12.7 4.2251C12.7 5.3251 12.35 6.2251 11.65 6.9251C10.95 7.6251 10.05 7.9751 8.95 7.9751ZM17.95 4.2251C17.95 5.3251 17.6 6.2251 16.9 6.9251C16.2 7.6251 15.3 7.9751 14.2 7.9751C14.0167 7.9751 13.8125 7.9626 13.5875 7.9376C13.3625 7.9126 13.1583 7.86676 12.975 7.8001C13.375 7.38343 13.6792 6.87093 13.8875 6.2626C14.0958 5.65426 14.2 4.9751 14.2 4.2251C14.2 3.4751 14.0958 2.8126 13.8875 2.2376C13.6792 1.6626 13.375 1.13343 12.975 0.650098C13.1583 0.600098 13.3625 0.558431 13.5875 0.525098C13.8125 0.491765 14.0167 0.475098 14.2 0.475098C15.3 0.475098 16.2 0.825098 16.9 1.5251C17.6 2.2251 17.95 3.1251 17.95 4.2251ZM2.45 14.5001H15.45V13.6501C15.45 13.3834 15.3708 13.1251 15.2125 12.8751C15.0542 12.6251 14.8583 12.4501 14.625 12.3501C13.425 11.8168 12.4167 11.4584 11.6 11.2751C10.7833 11.0918 9.9 11.0001 8.95 11.0001C8 11.0001 7.1125 11.0918 6.2875 11.2751C5.4625 11.4584 4.45 11.8168 3.25 12.3501C3.01666 12.4501 2.825 12.6251 2.675 12.8751C2.525 13.1251 2.45 13.3834 2.45 13.6501V14.5001ZM8.95 6.4751C9.6 6.4751 10.1375 6.2626 10.5625 5.8376C10.9875 5.4126 11.2 4.8751 11.2 4.2251C11.2 3.5751 10.9875 3.0376 10.5625 2.6126C10.1375 2.1876 9.6 1.9751 8.95 1.9751C8.3 1.9751 7.7625 2.1876 7.3375 2.6126C6.9125 3.0376 6.7 3.5751 6.7 4.2251C6.7 4.8751 6.9125 5.4126 7.3375 5.8376C7.7625 6.2626 8.3 6.4751 8.95 6.4751Z" fill="white"/>
</svg>
